<?xml version="1.0" encoding="utf-8"?>
<svg version="1.1" xmlns:xlink="http://www.w3.org/1999/xlink" width="35px" height="18px" xmlns="http://www.w3.org/2000/svg">
  <g transform="matrix(1 0 0 1 -46 -528 )">
    <path d="M 11.3265079272219 1.42809922190384  C 13.4338949729655 0.478827760461684  15.7236962884326 0.002874988884912  18.0348095711694 0.0337272567717832  C 24.885333177324 0.371877376703935  30.0411279471127 3.4271631662084  33.2565377639968 9.58149534897331  C 34.3952400851551 11.8455130910254  34.9917773191913 14.3433425139076  34.9990054408236 16.8775814660973  C 34.9990054408236 17.0476510852396  34.8000936055693 17.2226935002633  34.7006376879423 17.3947522377582  C 34.5713449950271 17.2783888141345  34.3406072661322 17.1739601006261  34.3266834376644 17.0446674077108  C 34.1168314514712 15.1729070379688  32.8288773182003 14.3921780845961  31.2127186567599 13.9943544140876  C 29.4318992287573 13.4866717974986  27.5286807729869 13.6276509423705  25.8420991048965 14.392178084596  C 24.7600222859116 14.7898027099224  24.0038256186501 15.7752202819554  23.8997250336395 16.9233311882057  C 23.8867957643479 17.0834552155854  23.6779383373311 17.2276662961447  23.5595857953548 17.3788392909379  C 23.4432223717311 17.2714268999006  23.2343649447141 17.1739601006261  23.2224302345988 17.0556075586499  C 23.0304803135786 15.1768852746739  21.7236295559585 14.3802433744809  20.1243784005147 13.9824197039725  C 18.1051537157985 13.36034582711  15.9161026110595 13.6341130124173  14.1122681799566 14.7343064412333  C 13.3906076059035 15.185863779049  12.9145164676445 15.9421162409757  12.8193412508044 16.7880711402329  C 12.7555333273599 16.993963678899  12.6598928108423 17.1886005195311  12.5358918855671 17.3649154624701  C 12.3847188907739 17.2594921897854  12.1141987948283 17.1660036272159  12.1012695255367 17.0466565260634  C 11.8904229801673 15.1420757035044  10.5597028023168 14.3852161703622  8.93558766746617 13.9804305856199  C 7.13229944764987 13.4869776868116  5.21235475634796 13.6501747479595  3.51822383431806 14.4409114842333  C 2.50079758707204 14.8435414306329  1.79088870622729 15.7775715717553  1.6753056806881 16.865646755982  C 1.64944714210503 17.1073246358159  1.62955595857954 17.4444801965718  1.27748201017971 17.3450242789447  C 1.13724916632555 17.3052419118938  0.99005440823737 16.9720645878431  0.999005440823794 16.7791201076465  C 1.33715556075595 9.57950623062084  4.8360147428773 4.46846662376419  11.3265079272219 1.42809922190384  Z M 22.9051658573685 14.69253495583  L 22.9081495348972 14.6925349558299  C 22.8474814251446 13.8163283215351  22.8027262622124 12.978909495115  22.7281343239921 12.1454689054  C 22.533919309279 9.5646613479982  21.9840324906745 7.02306639943879  21.0940735973788 4.59278652079803  C 20.7630351924137 3.57705089315209  20.220714417888 2.64290335903161  19.5027789153453 1.85178143099517  C 19.1623447167259 1.36911437558052  18.6085517338913 1.08203108008223  18.0179055369408 1.08203108008223  C 17.4047050358065 1.08203108008223  16.8328665190352 1.39130986713468  16.4972210846543 1.90449306733757  C 15.9935052919005 2.49375089645059  15.5741016242945 3.1501360458326  15.2510384367866 3.85482361200496  C 14.0417978374745 6.79758819872774  13.347105875867 9.92622512025366  13.197273737787 13.1042239513252  C 13.1564968115598 13.591557947698  13.1336219505057 14.079886503247  13.0978178201599 14.6716492131283  C 15.265956824431 12.2319955537355  20.5381150178436 11.995290469783  22.9051658573685 14.69253495583  Z M 19.8130813783418 1.25604048440891  L 19.8160650558706 1.25604048440886  C 21.3216399658751 3.09966625122922  22.3003846091003 5.31627543269099  22.6485695898904 7.67094717135672  C 23.0941321008597 9.99622652547828  23.3646521968055 12.3543263324168  23.7047914350903 14.6527525887791  C 24.9273607775192 13.3600211314399  26.6525970247883 12.6642617860879  28.4299420815535 12.7471772070438  C 30.2728392220988 12.6264241960261  32.0771968270727 13.3128132990246  33.3738957467967 14.6278886093723  C 32.4830861492808 7.57427106786776  26.8785041538143 2.04778739136998  19.8130813783418 1.25604048440891  Z M 2.65096823260978 14.5473293160943  L 2.65395191013852 14.5483238752707  C 3.97400753903401 13.2797074281709  5.76703206383058 12.6252372321862  7.59392733867662 12.7451880886913  C 9.4142431369163 12.6806650809324  11.1696338737459 13.4257956717111  12.3877025683028 14.7800561633417  C 12.5229626162755 13.39364067162  12.6164511788451 12.0659041712983  12.785526238811 10.7481132627393  C 13.0407509722747 8.1020686645806  13.7587934868495 5.52142454046941  14.9069209617971 3.1238226174458  C 15.2490493184343 2.46442988357813  15.7105247762241 1.86769437781555  16.1113321242613 1.25305680688007  C 9.10140839455823 2.06220458118457  3.54708476761948 7.54799177796997  2.65096823260978 14.5473293160943  Z " fill-rule="nonzero" fill="#ffffff" stroke="none" transform="matrix(1 0 0 1 46 528 )" />
  </g>
</svg>