<?xml version="1.0" encoding="utf-8"?>
<svg version="1.1" xmlns:xlink="http://www.w3.org/1999/xlink" width="32px" height="33px" xmlns="http://www.w3.org/2000/svg">
  <g transform="matrix(1 0 0 1 -49 -10 )">
    <path d="M 9.49099999999999 24.85  C 9.46100000000001 23.737  9.48299999999995 22.62  9.48399999999992 21.509  C 9.48400000000004 20.359  9.48400000000004 19.2086666666667  9.48399999999992 18.058  C 9.48399999999992 17.052  9.55599999999993 17.225  8.61999999999989 17.041  C 7.15879925189915 16.7679550699575  5.81351683383537 16.0616905111863  4.7589999999999 15.014  C 3.53231487389451 13.7823756210769  2.86775229848536 12.0994441562958  2.92199999999991 10.362  C 2.90999999999997 9.24800000000005  2.90099999999995 8.13400000000001  2.92999999999984 7.02099999999996  C 2.96805919838425 6.71303394553479  2.7921839289063 6.41853554348154  2.50299999999982 6.30600000000004  C 1.33334679147606 5.71648557743453  0.745850189524617 4.38046546764315  1.10199999999998 3.12000000000006  C 1.4257711221461 1.87326921405918  2.55111858025828 1.00284133758362  3.83920452154803 1.00284133758362  C 5.12228985684942 1.00284133758362  6.24458762187464 1.8666559801573  6.57299999999998 3.10700000000003  C 6.93578843910086 4.34667312432856  6.37496758605812 5.67031070813215  5.23199999999997 6.27200000000011  C 4.78793630726886 6.43680420534571  4.52208972096594 6.89230197841283  4.59699999999998 7.36000000000007  C 4.64099999999996 8.32600000000008  4.649 9.29700000000008  4.59699999999987 10.26  C 4.4521632252472 12.2727264690493  5.59456741853739 14.157352551346  7.44600000000014 14.9600000000001  C 9.94733977048111 16.2039089948282  12.9696397943917 15.6459898021728  14.8620000000001 13.591  C 15.5742076689504 12.7920662701077  15.9628648193464 11.7562414793737  15.9520000000001 10.686  C 15.9520000000001 9.48100000000005  15.9380000000001 8.27600000000001  15.9589999999999 7.07100000000008  C 16.0052160377727 6.74839347636839  15.8252393214769 6.43591096665318  15.5230000000001 6.31400000000008  C 14.2172845483245 5.66606174666623  13.6408700370009 4.11421021656054  14.2069999999999 2.77099999999996  C 14.7305143582066 1.51077802203787  16.0666003994374 0.790961667324666  17.4069999999999 1.04700000000003  C 18.8330207204182 1.34422097136718  19.8039364383383 2.67086570287836  19.6559999999998 4.12  C 19.5725569055245 5.12905475064719  18.9351525262971 6.00808702937627  18.0019999999998 6.40100000000001  C 17.7433470029006 6.49042372723812  17.5810333444714 6.74697063493426  17.611 7.01900000000001  C 17.598 8.38600000000002  17.5889999999999 9.755  17.528 11.119  C 17.4150657090686 13.108133272441  16.3221203408765 14.9114743958928  14.611 15.932  C 13.6600958723358 16.5499864683278  12.5888029928017 16.959006975945  11.468 17.132  C 11.3149999999999 17.16  11.081 17.378  11.0799999999999 17.51  C 11.0629999999999 19.938  10.9949999999999 22.37  11.1030000000001 24.793  C 11.2147040364048 27.1580614093119  12.6881459424848 29.2435844249069  14.8799999999999 30.139  C 18.0549263549641 31.6718413809568  21.8587063322901 30.9497279907462  24.251 28.3600000000001  C 25.1861608539858 27.3391561773539  25.7039921301101 26.0044291113957  25.702 24.62  C 25.702 22.32  25.6950000000001 20.02  25.71 17.72  C 25.71 17.3200000000001  25.624 17.1060000000001  25.1940000000001 16.979  C 23.3695493257275 16.3552937302042  22.1435699985572 14.640541500784  22.1435699985572 12.7124258990017  C 22.1435699985572 10.2221739620147  24.1623180615701 8.20342589900179  26.6525699985572 8.20342589900179  C 29.1428219355441 8.20342589900179  31.1615699985572 10.2221739620147  31.1615699985572 12.7124258990017  C 31.1615699985572 13.8139605308439  30.7583436253511 14.8773929820475  30.0279999999999 15.702  C 29.4739047090469 16.3660089525696  28.7183716784989 16.8311954142221  27.876 17.027  C 27.485 17.1130000000001  27.3539999999999 17.289  27.3579999999999 17.7  C 27.38 19.873  27.3729999999999 22.046  27.367 24.218  C 27.4287500054465 26.3850898992777  26.5620637709189 28.4753973792781  24.985 29.963  C 22.9410275425772 31.9357219251278  20.1075374330643 32.8660996732922  17.292 32.489  C 15.2748610509759 32.309678113714  13.377370316283 31.4544859107243  11.907 30.062  C 10.4160970310655 28.7331270410562  9.5415737635584 26.8465313166163  9.49099999999999 24.85  Z M 23.7439999999999 12.725  C 23.7474388834927 14.3241872569952  25.0448023404691 15.6187638703489  26.6439932949381 15.6187638703489  C 28.2456190694475 15.6187638703489  29.5439932949381 14.3203896448582  29.5439932949381 12.7187638703489  C 29.5439932949381 11.1315714810129  28.2680631537548 9.83925405538918  26.681 9.81900000000002  C 25.0681155724143 9.8123476586548  23.7540108755699 11.112139438447  23.7430000000001 12.725  Z M 16.8509999999999 2.63800000000003  C 16.8433248300028 2.63785268533348  16.8356484230974 2.63777902291338  16.827971839476 2.63777902291338  C 16.165230139679 2.63777902291338  15.627971839476 3.17503732311644  15.627971839476 3.83777902291337  C 15.627971839476 3.84051937272596  15.6279812263724 3.8432597144955  15.6279999999999 3.84600000000006  C 15.6459359189959 4.49430156201072  16.1592978750242 5.01985532021791  16.8069999999999 5.05300000000005  C 17.4785641076709 5.0625465431815  18.0330043992747 4.53039082921435  18.0509999999999 3.85900000000004  C 18.051122513848 3.85200047543674  18.0511837742902 3.84500001278712  18.0511837742902 3.83799941611585  C 18.0511837742902 3.17525771631887  17.5139254740872 2.63799941611586  16.8511837742901 2.63799941611586  C 16.8507891827818 2.63799941611586  16.8503945913162 2.63799961074392  16.85 2.63799999999998  Z M 5.02214849196116 3.83887746425359  C 5.02214849196116 3.83258468415517  5.02209899310947 3.826292001409  5.02199999999993 3.81999999999994  C 5.02206492050846 3.81497499716647  5.02209738177839 3.80994962741522  5.02209738177839 3.80492420522904  C 5.02209738177839 3.16040790217653  4.49961368483105 2.63792420522907  3.85509738177836 2.63792420522907  C 3.83839247953961 2.63792420522907  3.8216895028844 2.6382828861482  3.80499999999995 2.63900000000007  C 3.14901255477207 2.64837528686576  2.62214849196107 3.18282302725896  2.62214849196107 3.83887746425359  C 2.62214849196107 4.50161916405051  3.15940679216408 5.03887746425357  3.82214849196112 5.03887746425357  C 4.48489019175815 5.03887746425357  5.02214849196116 4.50161916405051  5.02214849196116 3.83887746425359  Z " fill-rule="nonzero" fill="#ffffff" stroke="none" transform="matrix(1 0 0 1 49 10 )" />
  </g>
</svg>