<?xml version="1.0" encoding="utf-8"?>
<svg version="1.1" xmlns:xlink="http://www.w3.org/1999/xlink" width="14px" height="15px" xmlns="http://www.w3.org/2000/svg">
  <g transform="matrix(1 0 0 1 -62 -413 )">
    <path d="M 6.93300000000011 14.3370073045981  C 6.92966666531481 14.3370073045981  6.92633333112826 14.3370048697315  6.92300000000012 14.337  C 3.14651553701356 14.331482856884  0.087992695402022 11.268488493038  0.087992695402022 7.49200000000008  C 0.087992695402022 3.71160685319018  3.15260685319015 0.646992695402048  6.93300000000011 0.646992695402048  C 6.93633333468529 0.646992695402048  6.93966666887184 0.646995130268692  6.94299999999998 0.647000000000048  C 10.7194844629865 0.652517143116086  13.7780073045981 3.71551150696217  13.7780073045981 7.49200000000008  C 13.7780073045981 11.27239314681  10.7133931468099 14.3370073045981  6.93300000000011 14.3370073045981  Z M 6.952 13.09  C 10.0183927998585 13.0636045026123  12.5014089273208 10.5912508169213  12.5410000000001 7.52499999999998  C 12.5411201157954 7.51001317863512  12.5411801744162 7.49502593609623  12.5411801744162 7.48003863338948  C 12.5411801744162 4.38172118683872  10.029497620967 1.87003863338947  6.93118017441623 1.87003863338947  C 3.83286272786552 1.87003863338947  1.32118017441621 4.38172118683872  1.32118017441621 7.48003863338948  C 1.32118017441621 10.5783560799402  3.83286272786552 13.0900386333894  6.93118017441623 13.0900386333894  C 6.93812013419824 13.0900386333894  6.94506008801 13.0900257555708  6.952 13.09  Z " fill-rule="nonzero" fill="#ffffff" stroke="none" transform="matrix(1 0 0 1 62 413 )" />
  </g>
</svg>