<?xml version="1.0" encoding="utf-8"?>
<svg version="1.1" xmlns:xlink="http://www.w3.org/1999/xlink" width="12px" height="12px" xmlns="http://www.w3.org/2000/svg">
  <g transform="matrix(1 0 0 1 -69 -472 )">
    <path d="M 11.0050000000001 11.557  C 9.31200000000013 11.528  7.61799999999994 11.544  5.92399999999998 11.544  C 4.25099999999998 11.544  2.577 11.528  0.903999999999996 11.554  C 0.388999999999896 11.562  0.173999999999978 11.448  0.177999999999884 10.873  C 0.203333333333376 7.46500000000003  0.203333333333376 4.05666666666667  0.177999999999884 0.647999999999968  C 0.177999999999884 0.114999999999952  0.3599999999999 -0.00200000000000955  0.857999999999947 0.000999999999976353  C 4.24600000000009 0.0203333333333262  7.63366666666661 0.0203333333333262  11.021 0.000999999999976353  C 11.5719999999999 0.000999999999976353  11.721 0.158999999999992  11.721 0.700999999999965  C 11.6990000000001 4.08833333333337  11.6990000000001 7.476  11.721 10.864  C 11.721 11.424  11.5340000000001 11.564  11.0050000000001 11.557  Z M 9.73000000000002 9.52599999999995  L 9.73000000000002 2.01299999999998  L 2.17800000000011 2.01299999999998  L 2.17800000000011 9.52599999999995  L 9.73000000000002 9.52599999999995  Z " fill-rule="nonzero" fill="#ffffff" stroke="none" transform="matrix(1 0 0 1 69 472 )" />
  </g>
</svg>