<?xml version="1.0" encoding="utf-8"?>
<svg version="1.1" xmlns:xlink="http://www.w3.org/1999/xlink" width="16px" height="16px" xmlns="http://www.w3.org/2000/svg">
  <g transform="matrix(1 0 0 1 -62 -353 )">
    <path d="M 15.3460000000001 7.61599999999987  C 15.3016436739864 11.7362190214125  11.9514551049291 15.0543099754367  7.83100000000002 15.059  C 7.79906536669716 15.0594119380769  7.7671284087279 15.0596179135408  7.73519111865551 15.0596179135408  C 3.63281999691242 15.0596179135408  0.307191118655396 11.7339890352839  0.307191118655396 7.63161791354077  C 0.307191118655396 7.59507711683739  0.307460753110831 7.55853681754763  0.308000000000106 7.52200000000005  C 0.310202566500379 3.37428254503538  3.67028562671942 0.0115149976842304  7.8180000000001 0.00599999999997181  C 11.9860892843475 0.057403112271686  15.3397542565427 3.44759844149667  15.3460000000001 7.61599999999987  Z M 7.79000000000008 13.765  C 7.79818249123343 13.7650322669921  7.80636503815037 13.7650484005353  7.81454759300448 13.7650484005353  C 11.252520160701 13.7650484005353  14.0395475930044 10.978020968232  14.0395475930044 7.54004840053528  C 14.0395475930044 4.10207583283864  11.252520160701 1.31504840053532  7.81454759300448 1.31504840053532  C 4.40584750172786 1.31504840053532  1.63109517907708 4.05654763880653  1.59000000000003 7.46499999999998  C 1.58969025733779 7.49034827066134  1.58953538167145 7.51569819712404  1.58953538167145 7.54104836016171  C 1.58953538167145 10.9688908624325  4.36118413189013 13.7514872390581  7.7890000000001 13.765  Z " fill-rule="nonzero" fill="#ffffff" stroke="none" transform="matrix(1 0 0 1 62 353 )" />
  </g>
</svg>