<?xml version="1.0" encoding="utf-8"?>
<svg version="1.1" xmlns:xlink="http://www.w3.org/1999/xlink" width="32px" height="18px" xmlns="http://www.w3.org/2000/svg">
  <g transform="matrix(1 0 0 1 -53 -423 )">
    <path d="M 1.15199999999982 8.81100000000004  C 2.29500079169122 5.1234159171222  4.88269076005361 2.05592284574573  8.32500000000005 0.307999999999993  L 8.76300000000015 1.2650000000001  C 7.70817326525309 2.0196130863402  6.69314644739802 2.82836349070158  5.72199999999998 3.68799999999999  C 3.26695604971621 5.96521537300157  1.88217807693695 9.16951031525537  1.90599999999995 12.518  C 1.90599999999995 13.254  1.89999999999998 13.989  1.90600000000018 14.725  C 1.89969070487666 14.7773408967142  1.89652753216035 14.8300132006312  1.89652753216035 14.8827329945781  C 1.89652753216035 15.6106442948551  2.48661623188332 16.2007329945781  3.21452753216033 16.2007329945781  C 3.26514415815723 16.2007329945781  3.31571875694738 16.1978171663533  3.36599999999999 16.192  C 4.61799999999994 16.192  5.86599999999999 16.192  7.19499999999994 16.192  C 7.19499999999994 15.546  7.19499999999994 14.943  7.19499999999994 14.34  C 7.19499999999994 13.9100000000001  7.17899999999997 13.477  7.21900000000005 13.0500000000001  C 7.21897506978507 13.0478179903545  7.21896260437234 13.0456358560942  7.21896260437234 13.0434537040352  C 7.21896260437234 12.726994542382  7.47550344271929 12.4704537040351  7.79196260437232 12.4704537040351  C 7.81604675147287 12.4704537040351  7.84010694131257 12.4719721479354  7.86399999999981 12.475  C 7.87113406236017 12.4747289652846  7.87827262788437 12.4745934112815  7.88541183691461 12.4745934112815  C 8.1969004358192 12.4745934112815  8.44941183691469 12.7271048123769  8.44941183691469 13.0385934112815  C 8.44941183691469 13.0621313429566  8.44793834304028 13.0856461915801  8.44499999999994 13.109  C 8.45899999999995 13.88  8.45099999999991 14.652  8.45199999999988 15.423  C 8.45199999999988 15.654  8.45199999999988 15.884  8.45199999999988 16  L 23.4299999999998 16  C 23.4299999999998 15.188  23.4149999999999 14.225  23.4409999999999 13.2630000000001  C 23.439130921835 13.0228299562194  23.5264303045695 12.7905067009422  23.6859999999997 12.611  C 23.8738781198904 12.4866114446992  24.1116453291418 12.4648255076745  24.3189999999997 12.5529999999999  C 24.5110418914712 12.7024776503142  24.6317903153582 12.9254814962314  24.6519999999998 13.168  C 24.6919999999998 13.955  24.6699999999998 14.746  24.6709999999998 15.535  C 24.6709999999998 15.7289999999999  24.6709999999998 15.924  24.6709999999998 16.192  L 27.0709999999998 16.192  C 27.5709999999998 16.192  28.0709999999998 16.192  28.5779999999996 16.192  C 28.6156216041811 16.195365153092  28.6533746072517 16.1970502424664  28.6911464136225 16.1970502424664  C 29.3715645572572 16.1970502424664  29.9310957528576 15.6608039384148  29.9599999999997 14.981  C 30.3999999999998 9.851  28.9039999999997 5.52800000000002  24.6499999999998 2.37300000000005  C 24.4059999999997 2.19200000000001  24.1449999999998 2.03200000000004  23.8849999999998 1.87300000000005  C 23.6249999999998 1.71400000000006  23.3569999999997 1.57300000000009  23.0579999999998 1.404  L 23.5579999999997 0.303999999999974  C 24.9377751349153 0.967576840845254  26.1861919950976 1.87517759211482  27.2429999999997 2.98299999999995  C 29.4303272357189 5.10093122755529  30.8048862292519 7.91941418957822  31.1269999999997 10.947  C 31.2415625995932 12.3776123365683  31.2545952453062 13.8145450690245  31.1659999999997 15.247  C 31.0595689835468 16.447561086854  30.0792306213033 17.3829690571135  28.8749999999995 17.433  C 28.6605519655669 17.4518714143375  28.4452052513676 17.458548831832  28.2299999999997 17.453  L 3.62999999999965 17.453  C 1.65999999999963 17.453  0.672999999999661 16.485  0.667999999999779 14.5230000000001  C 0.557928384157094 12.6056856837042  0.720890956375683 10.6824579719014  1.15199999999982 8.81100000000004  Z " fill-rule="nonzero" fill="#ffffff" stroke="none" transform="matrix(1 0 0 1 53 423 )" />
  </g>
</svg>