<?xml version="1.0" encoding="utf-8"?>
<svg version="1.1" xmlns:xlink="http://www.w3.org/1999/xlink" width="33px" height="38px" xmlns="http://www.w3.org/2000/svg">
  <g transform="matrix(1 0 0 1 -45 -591 )">
    <path d="M 11.3217814116261 5.92805599430153  L 12.101737433801 5.92904704388491  C 12.101737433801 5.51776146675337  12.0928179875499 5.18476880671437  12.101737433801 4.85177614667532  C 12.123540524637 4.17588033076277  12.317786242993 3.98262566199014  12.9887268109883 3.97767041407292  C 13.7557991885781 3.97172411657226  14.5238626157515 3.97767041407292  15.3751742079346 3.97767041407286  C 15.1916827405965 2.73397123909677  15.6863315347305 1.4869574723723  16.6724581126701 0.707206788689689  C 17.279482186943 0.250970416739449  18.0323783320265 0.0324331461628162  18.7893400229179 0.0927560469509672  C 20.7199046114775 0.200780451546905  21.6633838149214 1.34841586918145  21.9190746074514 3.97866146365635  L 24.0755985010375 3.97866146365635  C 25.0111493078138 3.97866146365635  25.1399857536621 4.11146210783858  25.1429589024126 5.05989655919973  C 25.1429589024126 5.31955155006347  25.1429589024126 5.57920654092726  25.1429589024126 5.89733345721453  C 25.4036049428598 5.91021710179939  25.6206448016352 5.93102914305183  25.8366936108272 5.93102914305183  C 27.8465421660629 5.93102914305183  29.8567210711595 5.93102914305183  31.8672303261174 5.93102914305183  C 32.8414320666481 5.93102914305183  32.9950447520829 6.08265972931963  32.9950447520829 7.02712998234693  C 32.995044752083 16.9660359049006  32.995044752083 26.904611477593  32.9950447520829 36.8428567004243  C 32.9950447520829 37.7952553501192  32.8751277524855 37.9151723497166  31.9257022515409 38  L 5.32692248134038 38  C 4.36857753414472 37.9151723497166  4.26848152621631 37.8160673913716  4.26749047663293 36.8448387995912  C 4.26749047663293 36.1511040911765  4.26749047663293 35.457369382762  4.26749047663304 34.6922791043389  C 3.1588324297353 34.6735469124376  2.13161035705627 34.1062916442578  1.52525627922819 33.1779553408281  C 1.11938129506052 32.5571157067982  0.938543418337872 31.8159252604236  1.01288364458492 31.0779212734988  C 1.1674873796029 29.4922419399796  2.22394623556011 28.5011923565301  4.26451732788257 28.0948620273159  L 4.26451732788257 27.4625723930751  C 4.26451732788269 20.6428298594981  4.26451732788269 13.82275697606  4.26451732788257 7.00235374276076  C 4.26451732788257 6.07869553098584  4.41218371581647 5.92904704388496  5.34773452259276 5.92805599430153  C 7.33908348560396 5.92805599430153  9.33043244861506 5.92805599430153  11.3217814116261 5.92805599430153  Z M 12.1076837313018 9.86747808851311  L 8.24754560376596 9.86946018768003  L 8.24754560376596 28  L 25.8723713958314 28  C 26.0785097091888 28.1364861098207  26.3262721050512 28.0790052339806  26.4818668896528 28.1711728452415  C 26.7276471863483 28.3168571340085  27.0695592926382 28.5616463811206  27.0764966397225 28.7737309919787  C 27.0834339868067 28.9858156028369  26.7553965746849 29.2504258416179  26.5195267738239 29.4109758741367  C 26.3490662454706 29.5279197249837  26.0824739075226 29.4942240391464  25.8693982470811 29.561615410821  C 25.0642275418318 29.8056736468186  24.5136275863257 30.5479062085752  24.5136275863257 31.3892529190043  C 24.5136275863257 31.7610064879988  24.6221289648844 32.1246777860629  24.8258230357088 32.4356592028245  C 25.4764128917817 33.3065954456746  26.6214011060541 33.6474328943991  27.6423859518721 33.2740871504228  C 28.5486605316271 33.0277444755726  29.1497908979469 32.1694036820551  29.0714794512063 31.2335160581002  C 29.0714794512063 24.2849370786748  29.0714794512063 17.3360277493883  29.0714794512063 10.3867880702406  C 29.0714794512063 10.2232648889714  29.0546316082877 10.0587506581188  29.0437300628697 9.88531698101514  L 25.1786366874169 9.88531698101519  C 25.1672946954153 9.93731124162127  25.1590216543862 9.9899277825665  25.1538604478305 10.0428938647836  C 25.1538604478305 10.5503112515098  25.1538604478305 11.0567375886524  25.1479141503299 11.5641549753786  C 25.1380036544954 12.2638359812939  24.9427668865559 12.4660100963176  24.2321843352227 12.4670011459011  C 20.4952667058959 12.4716260439571  16.758018726708 12.4716260439571  13.0204403976587 12.4670011459011  C 12.3267056892441 12.4670011459011  12.1205673758866 12.2519433862925  12.1076837313018 11.5522623803772  C 12.0977732354672 10.9972746136455  12.1076837313018 10.4422868469138  12.1076837313018 9.86747808851311  Z M 25.1776456378334 7.25209823778994  L 25.1776456378333 8.55830158877637  C 26.6285422280033 8.55830158877637  28.0179937439995 8.55830158877637  29.4074452599956 8.55830158877637  C 30.2101954225897 8.55830158877637  30.4074142896961 8.75651150546628  30.4074142896961 9.55727956889342  C 30.4074142896961 16.733469602651  30.4163337359472 23.9096596364087  30.3925485459444 31.0858496701663  C 30.3916399385413 31.6849105894206  30.2660887791274 32.2772285592368  30.0238781009011 32.8251416891201  C 29.4221467749247 34.0875313835001  28.0881798980413 34.8316273291275  26.6979156988449 34.6803865093376  C 19.9164937491614 34.6803865093376  13.1347414496165 34.6803865093376  6.35265880021063 34.6803865093376  L 5.6083805630401 34.6803865093376  L 5.6083805630401 36  L 31 36  L 31 7.25209823778994  L 25.1776456378334 7.25209823778994  Z M 23.7564805351667 29.4397163120568  L 23.7584626343336 29  L 4.55687695500035 29  C 4.4066727563611 29.4332882076957  4.25639963153856 29.4392461729971  4.10694044411423 29.4545820558085  C 3.23426764147064 29.5244909735819  2.51606260753022 30.1692524419047  2.35278268140871 31.0293598439097  C 2.32925172883108 31.1519171434437  2.31740657503553 31.2764312601878  2.31740657503553 31.4012270830276  C 2.31740657503553 32.4904368098455  3.20038551928201 33.373415754092  4.28959524609991 33.373415754092  C 4.37099437395455 33.373415754092  4.45231542903355 33.3683763184332  4.53309176499749 33.358326365016  C 10.8031321296213 33.3616298636275  17.0731724942449 33.3616298636275  23.3432128588685 33.358326365016  C 23.480968750968 33.358326365016  23.6177335934841 33.3394964229304  23.7733283780856 33.327603827929  C 23.0290501409149 31.7944501223326  23.027068041748 31.4010034377033  23.7564805351667 29.4397163120568  Z M 13.4168602310383 5.29477531047723  L 13.4188423302053 11.1221468611602  L 23.8248629564247 11.1221468611602  L 23.8248629564247 5.29180216172693  C 23.0171575459134 5.29180216172693  22.24909411874 5.29873950881108  21.4810306915667 5.29180216172693  C 20.8200006194058 5.28387376505936  20.6168354547988 5.06782495586737  20.5940413143794 4.40877698287341  C 20.6078108946595 3.88492410130834  20.5779765234192 3.36083364652507  20.504846851869 2.8419275914398  C 20.2855797555133 1.90555722654943  19.4051557437093 1.27759214825079  18.4484189662113 1.37517420793455  C 17.4978914038471 1.47500383546566  16.7539730941098 2.23892667117912  16.679395459754 3.19176809439745  C 16.6585834185016 3.52872495277023  16.6714670630863 3.86766391031  16.6704760135029 4.20462076868284  C 16.6704760135029 5.12233268295699  16.5010065347331 5.29477531047723  15.5892409179595 5.29477531047723  C 14.8667657716248 5.29477531047723  14.1452816748737 5.29477531047723  13.4168602310383 5.29477531047723  Z M 6 28.1067546223172  L 7 28.1117098702344  L 7 10.0438849143671  C 6.86007618693668 8.55731053919288  6.86007618693668 8.55731053919288  8.32682957044199 8.55731053919288  L 12.0670506983803 8.55731053919288  L 12.0670506983803 7.26894608070859  L 6 7.26894608070859  L 6 28.1067546223172  Z " fill-rule="nonzero" fill="#ffffff" stroke="none" transform="matrix(1 0 0 1 45 591 )" />
  </g>
</svg>