<?xml version="1.0" encoding="utf-8"?>
<svg version="1.1" xmlns:xlink="http://www.w3.org/1999/xlink" width="9px" height="8px" xmlns="http://www.w3.org/2000/svg">
  <g transform="matrix(1 0 0 1 -64 -605 )">
    <path d="M 6.81687261915795 3.11403264269563  C 5.0052339806125 5.20217411502369  3.15197125956183 7.00687540648516  0.398835516739155 7.62529034655762  C 0.318560500479862 7.12976555483289  0.256124376722482 6.74722041562143  0.191706153798123 6.3448542847409  C 2.80213075660413 5.66103007216077  4.51466443680488 3.85533773111581  6.18458298491714 1.76124996128709  L 4.23221530552178 1.76124996128709  L 4.23221530552178 0.453064511133789  C 5.36300288023767 0.453064511133789  6.49973675245406 0.421350924463411  7.63250642633693 0.485769147387657  C 7.81287745052464 0.495679643222104  8.09829973055821 0.933723559106795  8.11217442472639 1.18545015330301  C 8.16767320139957 2.19632072842143  8.13496856514553 3.21115550187369  8.13496856514553 4.2804980024157  L 6.81687261915795 4.2804980024157  L 6.81687261915795 3.11403264269563  Z " fill-rule="nonzero" fill="#ffffff" stroke="none" transform="matrix(1 0 0 1 64 605 )" />
  </g>
</svg>