<?xml version="1.0" encoding="utf-8"?>
<svg version="1.1" xmlns:xlink="http://www.w3.org/1999/xlink" width="7px" height="9px" xmlns="http://www.w3.org/2000/svg">
  <g transform="matrix(1 0 0 1 -77 -407 )">
    <path d="M 3.83799999999962 4.04900000000009  C 3.67899999999997 4.185  3.52799999999991 4.32800000000003  3.31699999999989 4.524  C 3.81699999999989 4.76100000000002  4.25699999999995 4.95299999999997  4.68099999999993 5.16800000000001  C 5.28099999999984 5.47399999999999  5.32999999999981 5.995  4.77099999999984 6.368  C 3.77099999999984 7.03100000000001  2.7589999999999 7.673  1.75199999999984 8.32400000000001  C 1.38799999999981 8.55900000000003  1.01799999999992 8.60200000000003  0.77499999999975 8.19300000000004  C 0.531999999999584 7.78400000000005  0.730999999999653 7.48600000000005  1.10099999999977 7.25300000000004  C 1.79399999999976 6.81600000000003  2.47799999999972 6.36400000000003  3.22599999999977 5.87900000000002  C 2.76199999999983 5.65800000000002  2.35999999999979 5.47900000000004  1.97299999999984 5.27899999999994  C 1.72003460033341 5.1975680428838  1.54853151761279 4.9621894291879  1.54853151761279 4.69644019199586  C 1.54853151761279 4.49483160303322  1.64782438672466 4.30615642205402  1.81399999999974 4.19200000000001  C 3.13599999999963 2.98500000000001  4.47199999999964 1.79200000000003  5.81399999999974 0.602000000000032  C 5.92685496469323 0.466423613973291  6.09413029265932 0.388020357400535  6.27053097152441 0.388020357400535  C 6.44418714912933 0.388020357400535  6.60914676810751 0.464012818531955  6.72199999999964 0.59600000000006  C 6.84150179525147 0.710151552106765  6.90910578448154 0.868219595728704  6.90910578448154 1.03348077059081  C 6.90910578448154 1.23648741203482  6.80729050298521 1.42596240778539  6.63799999999958 1.53800000000007  C 5.70799999999952 2.37800000000004  4.77199999999959 3.21200000000005  3.83799999999962 4.04900000000009  Z " fill-rule="nonzero" fill="#ffffff" stroke="none" transform="matrix(1 0 0 1 77 407 )" />
  </g>
</svg>