<?xml version="1.0" encoding="utf-8"?>
<svg version="1.1" xmlns:xlink="http://www.w3.org/1999/xlink" width="29px" height="29px" xmlns="http://www.w3.org/2000/svg">
  <g transform="matrix(1 0 0 1 -55 -346 )">
    <path d="M 14.886 28.5642007623562  C 14.8609998656518 28.5642007623562  14.8359997760776 28.5641338413311  14.8109999999999 28.564  C 14.7861188523941 28.5641325665493  14.7612373957661 28.5641988501768  14.736355895006 28.5641988501768  C 6.99884654987682 28.5641988501768  0.726355895006009 22.2917081953062  0.726355895006009 14.5541988501768  C 0.726355895006009 6.81668950504729  6.99884654987682 0.54419885017677  14.736355895006 0.54419885017677  C 14.8112408736088 0.54419885017677  14.8861246487397 0.544799252748419  14.961 0.546000000000049  C 22.6686842293698 0.587264638247063  28.8952007623561 6.84720531215038  28.8952007623561 14.555  C 28.8952007623561 22.2920679383672  22.6230679383671 28.5642007623562  14.886 28.5642007623562  Z M 14.789 27.256  L 14.79 27.256  C 14.7999977579782 27.2560235559189  14.809995540274 27.2560353338906  14.8199933260025 27.2560353338906  C 21.8505781913484 27.2560353338906  27.5499933260026 21.5566201992366  27.5499933260026 14.5260353338906  C 27.5499933260026 7.49545046854456  21.8505781913484 1.79603533389059  14.8199933260025 1.79603533389059  C 7.79449853645542 1.79603533389059  2.09719400395329 7.48750889373127  2.08999999999969 14.513  C 2.08995146963548 14.5273332932455  2.08992720440074 14.5416666584431  2.08992720440074 14.5560000338467  C 2.08992720440074 21.569654263593  7.77534578894574 27.2554879455852  14.789 27.256  Z " fill-rule="nonzero" fill="#ffffff" stroke="none" transform="matrix(1 0 0 1 55 346 )" />
  </g>
</svg>