<?xml version="1.0" encoding="utf-8"?>
<svg version="1.1" xmlns:xlink="http://www.w3.org/1999/xlink" width="12px" height="12px" xmlns="http://www.w3.org/2000/svg">
  <g transform="matrix(1 0 0 1 -69 -487 )">
    <path d="M 11.067 11.8810000000001  C 9.37400000000002 11.8579999999999  7.68000000000006 11.872  5.98599999999988 11.872  C 4.25099999999998 11.872  2.51599999999985 11.857  0.780999999999949 11.881  C 0.309999999999945 11.8879999999999  0.18100000000004 11.725  0.18100000000004 11.273  C 0.195666666666739 7.82366666666667  0.195666666666739 4.37400000000002  0.18100000000004 0.923999999999978  C 0.18100000000004 0.454999999999927  0.340000000000146 0.328999999999951  0.79099999999994 0.331000000000017  C 4.21966666666685 0.346333333333405  7.64866666666671 0.346333333333405  11.078 0.331000000000017  C 11.558 0.331000000000017  11.721 0.47199999999998  11.7180000000001 0.966000000000008  C 11.6993333333335 4.39466666666669  11.6993333333335 7.82366666666667  11.7180000000001 11.253  C 11.7180000000001 11.753  11.5420000000001 11.8870000000001  11.067 11.8810000000001  Z M 9.74099999999999 9.85599999999999  L 9.73999999999978 2.34199999999998  L 2.16599999999994 2.34199999999998  L 2.16599999999994 9.85599999999999  L 9.74099999999999 9.85599999999999  Z " fill-rule="nonzero" fill="#ffffff" stroke="none" transform="matrix(1 0 0 1 69 487 )" />
  </g>
</svg>