<?xml version="1.0" encoding="utf-8"?>
<svg version="1.1" xmlns:xlink="http://www.w3.org/1999/xlink" width="7px" height="11px" xmlns="http://www.w3.org/2000/svg">
  <g transform="matrix(1 0 0 1 -56 -606 )">
    <path d="M 0.121589395769661 3.92269813249118  C 0.0849205611818888 2.18538821270408  0.651800922914958 1.53228653721084  2.42478862770611 1.33407662052093  C 2.44560066895849 1.02883334881847  2.4654216606275 0.753321564619512  2.48722475146337 0.442131995416389  L 3.749821920778 0.442131995416389  L 3.749821920778 1.34299606677195  C 4.4818994569423 1.27983096319019  5.19148674825351 1.61475616468908  5.60803988974567 2.22007494812476  C 5.84499492725593 2.78566448491847  6.02815676438649 3.37231326761207  6.15509925980984 3.97225061166341  L 4.6982563721391 3.97225061166341  C 4.68636377713779 3.81269162872809  4.67248908296949 3.68484623246309  4.66753383505227 3.55501873703111  C 4.64275759546604 2.88011397070204  4.46932391836231 2.70568924401505  3.77558920994772 2.69875189693073  C 3.23051193905064 2.69379664901351  2.68543466815333 2.68388615317906  2.14134844683963 2.70469819443144  C 1.59726222552581 2.72551023568383  1.39806125925247 3.00201306946622  1.39806125925247 3.67394468704504  C 1.39806125925247 4.34587630462374  1.60221747344303 4.61841494007228  2.14927684350721 4.64021803090827  C 2.71219300690655 4.66202112174415  3.27610021988914 4.6451732788255  3.84000743287197 4.64814642757585  C 3.89318415875175 4.6438760848929  3.94651064907225 4.64173834111341  3.99985856376372 4.64173834111341  C 5.10275182986334 4.64173834111341  5.99682347441455 5.53580998566463  5.99682347441455 6.63870325176424  C 5.99682347441455 6.6500897013741  5.9967260882006 6.66147594274526  5.99653132645813 6.67286072656316  C 6.07086004521682 8.23178172132918  5.40190157638847 9.1058874539317  4.02632475456051 9.23175075102972  L 3.56647774783994 9.27535693270147  C 3.54962990492118 9.55978816315144  3.53476416116951 9.8184521044318  3.51791631825085 10.1167580290501  L 2.250363901019 10.1167580290501  C 2.23252500851686 9.85412988943597  2.21369506643134 9.58060020440382  2.19486512434582 9.31400786645611  C 1.02879199089841 9.29686987533626  0.0924918030307254 8.34670759321739  0.0924918030307254 7.18050852646775  C 0.0924918030307254 6.99404083060779  0.116934611703869 6.80837757245183  0.165195577441295 6.62826349530792  C 0.35151289912983 6.61934404905696  0.549722815819678 6.60646040447205  0.748923782093129 6.60249620613831  C 0.948124748366467 6.59853200780458  1.12056737588659 6.60249620613831  1.27715321007167 6.60249620613831  C 1.33066988757787 6.66889652822942  1.370311870916 6.69466381739915  1.3762581684166 6.72439530490272  C 1.498157267181 7.88689646628893  1.53383505218505 7.91960110254274  2.72309455232448 7.91861005295937  C 3.13636222862294 7.91861005295937  3.55062095450489 7.93446684629453  3.96289758121975 7.90770850754143  C 4.54067948837076 7.87103967295377  4.68239957880405 7.63318777292591  4.66852488463576 6.8125987178297  C 4.65762333921793 6.20904952150897  4.47923441419687 5.98804546439976  3.94208553996737 5.97317972064809  C 3.34150949239699 5.95633187772933  2.73895134565964 5.98408126606591  2.13837529808927 5.96426027439702  C 2.11932149193206 5.96481597848049  2.10026059683742 5.96509387481456  2.08119868885024 5.96509387481456  C 0.998009719316087 5.96509387481456  0.119911563203686 5.08699571870204  0.119911563203686 4.00380674916801  C 0.119911563203686 3.97676186721469  0.120470960363377 3.94971987821771  0.121589395769661 3.92269813249118  Z " fill-rule="nonzero" fill="#ffffff" stroke="none" transform="matrix(1 0 0 1 56 606 )" />
  </g>
</svg>