<?xml version="1.0" encoding="utf-8"?>
<svg version="1.1" xmlns:xlink="http://www.w3.org/1999/xlink" width="13px" height="12px" xmlns="http://www.w3.org/2000/svg">
  <g transform="matrix(1 0 0 1 -53 -485 )">
    <path d="M 6.81200000000001 3.82399999999996  L 6.66100000000006 3.91099999999994  C 6.6450000000001 4.08499999999992  6.6160000000001 4.25999999999999  6.6160000000001 4.43399999999997  C 6.6160000000001 6.06399999999996  6.63600000000008 7.69499999999994  6.60200000000009 9.32399999999996  C 6.59100000000012 9.88099999999997  6.77900000000011 10.024  7.3130000000001 10.0169999999999  C 8.96100000000013 9.98699999999997  10.6130000000001 10.006  12.3130000000001 10.006  L 12.3130000000001 11.857  L 4.73000000000002 11.857  L 4.73000000000002 3.76499999999999  L 1.89700000000005 6.75099999999998  C 1.39700000000005 6.197  1.03399999999999 5.81499999999994  0.704000000000065 5.40499999999997  C 0.635211005683686 5.27607850836637  0.637476990584219 5.120858542674  0.710000000000036 4.99400000000003  C 2.31000000000006 3.33100000000002  3.923 1.68100000000004  5.49099999999999 0.0729999999999791  L 10.7379999999999 5.36699999999996  C 10.7529999999999 5.23799999999994  10.7579999999999 5.26699999999994  10.747 5.27699999999993  C 9.61000000000001 6.72699999999998  9.60699999999997 6.72899999999993  8.33600000000001 5.42399999999998  C 7.822 4.89699999999993  7.32000000000005 4.36000000000001  6.81200000000001 3.82399999999996  Z " fill-rule="nonzero" fill="#ffffff" stroke="none" transform="matrix(1 0 0 1 53 485 )" />
  </g>
</svg>