<?xml version="1.0" encoding="utf-8"?>
<svg version="1.1" xmlns:xlink="http://www.w3.org/1999/xlink" width="7px" height="33px" xmlns="http://www.w3.org/2000/svg">
  <g transform="matrix(1 0 0 1 -86 -344 )">
    <path d="M 0.843999999999596 25.998  L 0.836999999999989 16.552  C 0.836999999999989 11.6186666666667  0.836999999999989 6.6876666666667  0.836999999999989 1.75900000000001  C 0.836999999999989 1.59700000000004  0.783999999999878 1.40600000000001  0.850999999999885 1.279  C 0.980999999999995 1.03399999999999  1.14399999999978 0.697000000000003  1.35699999999997 0.639999999999986  C 1.63416184491734 0.632359884447226  1.89583893751137 0.767540835599732  2.04999999999995 0.99799999999999  C 2.91799999999989 2.83199999999999  3.84999999999991 4.649  4.54999999999973 6.548  C 5.73614094645541 10.0156271240471  6.28135590363377 13.6701599476456  6.15899999999988 17.333  C 6.15199999999982 18.233  6.15899999999988 19.139  6.15899999999988 20.042  C 6.15899999999988 20.656  5.88499999999999 20.987  5.22699999999986 20.97  C 4.41699999999992 20.949  3.60499999999979 21  2.7969999999998 20.954  C 2.2339999999997 20.922  2.08899999999971 21.124  2.09699999999975 21.666  C 2.11799999999971 25  2.09699999999975 28.334  2.11899999999969 31.666  C 2.11899999999969 32.209  1.9839999999997 32.406  1.41899999999964 32.382  C 0.958999999999605 32.362  0.8299999999997 32.209  0.834999999999582 31.762  C 0.854999999999563 29.841  0.843999999999596 27.919  0.843999999999596 25.998  Z M 2.30799999999999 4.37300000000005  L 2.30799999999999 4.37200000000001  L 2.09799999999996 4.39600000000002  L 2.09799999999996 5.05900000000003  C 2.09799999999996 9.6396666666667  2.09799999999996 14.2203333333334  2.09799999999996 18.801  C 2.07914005249017 18.9848173640265  2.08688644027097 19.1703938713029  2.12099999999987 19.352  C 2.15899999999988 19.475  2.30699999999979 19.652  2.40999999999985 19.652  C 3.20999999999981 19.677  4.00999999999976 19.6660000000001  4.77400000000011 19.6660000000001  C 5.24552255009621 14.4422637145946  4.39758701110827 9.18375674065106  2.30799999999999 4.37300000000005  Z " fill-rule="nonzero" fill="#ffffff" stroke="none" transform="matrix(1 0 0 1 86 344 )" />
  </g>
</svg>