<?xml version="1.0" encoding="utf-8"?>
<svg version="1.1" xmlns:xlink="http://www.w3.org/1999/xlink" width="13px" height="12px" xmlns="http://www.w3.org/2000/svg">
  <g transform="matrix(1 0 0 1 -53 -472 )">
    <path d="M 11.99 0.0160000000000196  C 12.1030000211356 0.0229425121055442  12.2155145352233 0.0362973505729656  12.3270000000001 0.0559999999999832  C 12.3390000000001 0.282999999999959  12.3570000000001 0.48399999999998  12.3570000000001 0.683999999999969  C 12.3570000000001 4.08899999999994  12.3470000000001 7.49399999999997  12.3710000000001 10.9  C 12.3710000000001 11.429  12.2080000000001 11.558  11.705 11.555  C 8.32033333333345 11.5363333333333  4.93566666666675 11.5363333333333  1.55100000000004 11.555  C 1.01300000000003 11.555  0.850999999999999 11.4039999999999  0.850999999999999 10.855  C 0.875999999999976 7.45499999999998  0.865000000000009 4.04499999999996  0.861999999999966 0.639999999999986  C 0.861999999999966 0.300999999999988  0.809999999999945 0.000999999999976353  1.34100000000001 0.00399999999996226  C 4.88999999999999 0.0229999999999677  8.44100000000003 0.0139999999999532  11.99 0.0160000000000196  Z M 3.17700000000013 9.57499999999993  C 5.56900000000007 9.59199999999998  7.9620000000001 9.58599999999996  10.3910000000001 9.58599999999996  L 10.3910000000001 1.98099999999994  C 7.98300000000006 1.98099999999994  5.63100000000009 1.98099999999994  3.27900000000011 1.98099999999994  C 2.95100000000014 1.98099999999994  2.78500000000008 2.06199999999996  2.78700000000015 2.42699999999996  C 2.79600000000016 4.67599999999999  2.78700000000015 6.92699999999996  2.80799999999999 9.17499999999995  C 2.85306014777166 9.36343572187104  2.99280276865079 9.51491823772915  3.17700000000013 9.57499999999993  Z " fill-rule="nonzero" fill="#ffffff" stroke="none" transform="matrix(1 0 0 1 53 472 )" />
  </g>
</svg>