<?xml version="1.0" encoding="utf-8"?>
<svg version="1.1" xmlns:xlink="http://www.w3.org/1999/xlink" width="7px" height="13px" xmlns="http://www.w3.org/2000/svg">
  <g transform="matrix(1 0 0 1 -58 -400 )">
    <path d="M 1.72299999999996 7.00100000000003  C 2.529 6.80099999999999  3.35599999999999 6.66000000000003  4.28499999999997 6.47399999999999  C 3.00599999999997 4.815  1.78499999999997 3.24799999999999  0.591000000000008 1.65800000000002  C 0.433761648809423 1.4351345848695  0.377174219379071 1.15655031690477  0.435000000000059 0.890000000000043  C 0.599000000000046 0.404000000000053  1.17100000000005 0.414000000000044  1.54700000000003 0.890000000000043  C 2.48599999999999 2.09000000000003  3.41200000000003 3.29900000000004  4.34199999999998 4.50600000000003  C 4.82399999999996 5.13000000000005  5.31100000000004 5.75100000000003  5.78300000000002 6.38300000000004  C 6.22199999999998 6.97100000000006  6.05700000000002 7.38300000000004  5.34500000000003 7.53300000000002  C 4.60900000000004 7.68299999999999  3.87200000000007 7.83300000000003  3.053 8.00300000000004  C 3.17999999999995 8.14900000000006  3.26800000000003 8.26600000000002  3.37199999999996 8.36800000000005  C 4.28400000000011 9.25600000000003  5.19766666666681 10.1423333333334  6.11299999999994 11.027  C 6.18999999999994 11.102  6.27199999999993 11.172  6.34599999999989 11.251  C 6.48402129870806 11.3714007707531  6.56322975959847 11.5456078485866  6.56322975959847 11.7287641329314  C 6.56322975959847 12.0789126643242  6.27937829099108 12.3627641329314  5.92922975959846 12.3627641329314  C 5.74582611055837 12.3627641329314  5.57140879634335 12.2833424021923  5.45099999999991 12.145  C 4.09199999999987 10.816  2.71999999999991 9.50100000000003  1.37699999999984 8.15700000000004  C 1.19908562443447 7.97001681078694  1.11431941997864 7.71314952455674  1.14599999999996 7.45700000000005  C 1.26276580134981 7.22823905581078  1.47344714133249 7.06173872473261  1.72299999999996 7.00100000000003  Z " fill-rule="nonzero" fill="#ffffff" stroke="none" transform="matrix(1 0 0 1 58 400 )" />
  </g>
</svg>