<?xml version="1.0" encoding="utf-8"?>
<svg version="1.1" xmlns:xlink="http://www.w3.org/1999/xlink" width="8px" height="9px" xmlns="http://www.w3.org/2000/svg">
  <g transform="matrix(1 0 0 1 -53 -407 )">
    <path d="M 5.72199999999998 5.37500000000006  L 4.65200000000004 5.87700000000001  C 5.38700000000006 6.35399999999999  6.05200000000002 6.79599999999999  6.73300000000006 7.22200000000004  C 7.11000000000001 7.45900000000006  7.34500000000003 7.74300000000005  7.10400000000004 8.19200000000006  C 6.91100000000006 8.55100000000004  6.54000000000008 8.58200000000005  6.07900000000006 8.29200000000009  C 5.11233333333348 7.67733333333342  4.1496666666668 7.05666666666679  3.19100000000003 6.43000000000006  C 2.51800000000003 5.98800000000006  2.56700000000001 5.47800000000007  3.30600000000004 5.12200000000007  C 3.77511915053913 4.90842926396346  4.22567082420289 4.65622736200169  4.65300000000002 4.36800000000005  C 4.46781463713933 4.30481825261438  4.29166192386856 4.21775040387945  4.12900000000002 4.10900000000004  C 3.19799999999998 3.29700000000003  2.279 2.47100000000006  1.36099999999999 1.64400000000006  C 0.918000000000006 1.24400000000009  0.842999999999961 0.884000000000071  1.15499999999997 0.594000000000051  C 1.529 0.246000000000038  1.85500000000002 0.412000000000035  2.18700000000001 0.710000000000036  C 3.43500000000006 1.83900000000006  4.69799999999998 2.95200000000006  5.947 4.08000000000004  C 6.529 4.60500000000002  6.447 5.02900000000005  5.72199999999998 5.37500000000006  Z " fill-rule="nonzero" fill="#ffffff" stroke="none" transform="matrix(1 0 0 1 53 407 )" />
  </g>
</svg>