<?xml version="1.0" encoding="utf-8"?>
<svg version="1.1" xmlns:xlink="http://www.w3.org/1999/xlink" width="5px" height="5px" xmlns="http://www.w3.org/2000/svg">
  <g transform="matrix(1 0 0 1 -66 -612 )">
    <path d="M 4.80313103083699 2.56281209333679  C 4.80313103083699 2.57040373091593  4.80308666146357 2.57799530366697  4.80299792498977 2.58558642262085  C 4.80082576534005 3.64972040027817  3.93756460057693 4.51122123476478  2.87342840596534 4.51122123476478  C 2.87012355102206 4.51122123476478  2.86681870149619 4.51121274423622  2.86351389017909 4.511195763263  C 2.86058512865975 4.51120897066983  2.85765634107406 4.51121557439842  2.85472754977513 4.51121557439842  C 1.77865402066755 4.51121557439842  0.90632406871373 3.63888562244426  0.90632406871373 2.56281209333679  C 0.90632406871373 1.4867385642292  1.77865402066755 0.614408612275042  2.85472754977513 0.614408612275042  C 3.93080107888295 0.614408612275042  4.80313103083699 1.4867385642292  4.80313103083699 2.56281209333679  Z M 2.83080925392528 3.18715351977471  C 3.09046424478925 3.1603951810215  3.32633404565013 2.88587444640598  3.57409644151244 2.72235126513681  C 3.57409644151244 2.63447820207102  3.57673924040182 2.54660513900512  3.58202483818013 2.45873207593934  C 3.34516398773576 2.28133420050187  3.12713307937679 1.99690297005191  2.86648703892956 1.95032363962957  C 2.86054228691432 1.95015215639842  2.85459537124393 1.95006640141173  2.84864814642719 1.95006640141173  C 2.50696493721307 1.95006640141173  2.22997596813684 2.22705537048773  2.22997596813684 2.56873857970209  C 2.22997596813684 2.9034749273327  2.49621208659801 3.17750167840939  2.83080925392528 3.18715351977471  Z " fill-rule="nonzero" fill="#ffffff" stroke="none" transform="matrix(1 0 0 1 66 612 )" />
  </g>
</svg>