<?xml version="1.0" encoding="utf-8"?>
<svg version="1.1" xmlns:xlink="http://www.w3.org/1999/xlink" width="7px" height="13px" xmlns="http://www.w3.org/2000/svg">
  <g transform="matrix(1 0 0 1 -73 -400 )">
    <path d="M 2.9699999999998 6.00300000000004  C 2.86400000000003 6.12600000000003  2.77200000000016 6.25600000000003  2.61500000000001 6.47700000000003  C 3.50700000000006 6.65800000000001  4.31500000000005 6.79700000000003  5.10799999999995 6.99900000000002  C 5.37537671537552 7.05592386697475  5.60590862621939 7.22391399758976  5.74199999999996 7.46100000000001  C 5.76590970601228 7.73349044149404  5.6673255755577 8.00248951864535  5.47299999999996 8.19499999999999  C 4.15699999999993 9.51600000000002  2.8119999999999 10.807  1.48000000000002 12.113  C 1.36193405253698 12.2817731525432  1.1689271026371 12.3823000152248  0.962956364497586 12.3823000152248  C 0.782013763893929 12.3823000152248  0.609777688617214 12.3046227489133  0.490000000000009 12.169  C 0.152000000000044 11.825  0.303000000000111 11.48  0.607999999999947 11.185  C 1.54866666666658 10.275  2.49099999999999 9.36666666666667  3.43499999999972 8.45999999999992  C 3.5686919004072 8.34498926737825  3.70892623821783 8.23781016633723  3.85500000000002 8.13899999999995  L 3.78199999999993 8.00099999999998  L 1.5 7.53399999999999  C 0.854000000000042 7.40199999999999  0.663000000000011 6.969  1.0630000000001 6.44499999999999  C 2.4860000000001 4.57799999999997  3.92600000000016 2.72300000000001  5.36300000000006 0.863  C 5.61900000000014 0.531000000000006  5.93700000000013 0.40300000000002  6.28999999999996 0.675000000000011  C 6.67100000000005 0.968999999999994  6.58999999999992 1.32100000000003  6.32199999999989 1.66200000000003  C 5.20333333333315 3.10800000000006  4.08599999999979 4.55500000000006  2.9699999999998 6.00300000000004  Z " fill-rule="nonzero" fill="#ffffff" stroke="none" transform="matrix(1 0 0 1 73 400 )" />
  </g>
</svg>