<?xml version="1.0" encoding="utf-8"?>
<svg version="1.1" xmlns:xlink="http://www.w3.org/1999/xlink" width="14px" height="24px" xmlns="http://www.w3.org/2000/svg">
  <g transform="matrix(1 0 0 1 -57 -544 )">
    <path d="M 4.99496870063774 2.05712864915483  C 4.96612648452583 1.47531153103614  4.98999590475637 0.888521617036304  4.98999590475637 0.240069034107592  L 8.60820218803019 0.240069034107592  L 8.60820218803019 2.07503071432768  C 10.0712381766948 2.20803195706037  11.477119697074 2.70778692087401  12.6958404025038 3.52808167085959  C 12.9646636116183 3.653416904192  13.0853285239475 3.96961182044186  12.968349616802 4.24217515942212  C 12.6292049376937 5.40083659977779  12.3397882173988 6.57342186860137  12.0274966360498 7.73904522319083  C 11.994676183233 7.85938688351962  11.9419645468904 7.97475574796704  11.8912420289007 8.11001579593994  C 10.554163810773 7.25110233267878  9.06558409372553 6.65499535301751  7.50523606154559 6.35362429064548  C 7.10790374842952 6.28511037767601  6.7024647083266 6.27739731074269  6.30281401743389 6.33074942959115  C 5.67361709049317 6.34969838590212  5.13539080060752 6.78843436159673  4.98999590475603 7.40089510325879  C 4.85596962157308 7.99856149057473  5.14531078836478 8.61085002200082  5.69215468320351 8.88676651260766  C 6.439068624583 9.34923652957377  7.22775405136599 9.74308196337699  7.98560814368443 10.1886444743462  C 9.25457911783292 10.8402912181319  10.4747696179651 11.5828424513912  11.6366348797752 12.4104896741358  C 14.4611829403848 14.6840519510912  13.8465453694494 18.4017141519922  11.3114140291347 20.3669630843037  C 10.6715362472412 20.7899633388437  10.0102708842306 21.1796849935496  9.33025215000282 21.5345755572458  C 9.16448579812641 21.6398938189809  9.04965627800766 21.8090783784038  9.01298777277248 22.0020183700932  C 8.97618908325035 22.6395308020828  8.99806938512825 23.2810214707777  8.99806938512825 23.9622945065233  L 5.41765635055276 23.9622945065233  L 5.41765635055276 22.1382729772423  C 4.8805663210087 22.0728056972605  4.35014650540791 21.9609982580874  3.83232902357668 21.8041010940152  C 2.9372257649328 21.4480489089102  2.07195928157705 21.0084537529984  1.21067103492646 20.5758205113206  C 1.06877179402159 20.4612244825923  0.994021681622598 20.2829454645207  1.01175919967216 20.1014157842393  C 1.33896916866524 18.7726847247412  1.69899959047541 17.4519101386534  2.06499736734315 16.070467442813  C 2.49961972737356 16.3121453226469  2.88252501023783 16.5508395249518  3.28731059498034 16.7437840051484  C 4.46534943766562 17.3876482420594  5.76612346560455 17.7753724442382  7.10442871350835 17.8815597028024  C 7.36052667337867 17.8963082462886  7.61746364012925 17.8789340950909  7.86924472006046 17.8298426256363  C 8.43127042541698 17.7409061276528  8.88537774485735 17.3240207196417  9.0219388053589 16.7716316620841  C 9.14653214932559 16.2496150874307  8.91778579738468 15.7071479464721  8.45702919323696 15.4319604516471  C 7.74194114549812 14.9565611653895  6.9860761715322 14.5368571930032  6.2381676709764 14.1161586614405  C 5.10834844673263 13.4726788743932  3.94173053296674 12.8878780787459  2.84572632071615 12.1916866553563  C 1.90994535172013 11.6222361212066  1.19715737652609 10.7497639861341  0.825776633709893 9.71921254314657  C 0.141635362193142 7.87983804856776  0.601124332408176 5.81019069543788  1.99935646170945 4.43313052126609  C 2.69261676300198 3.66793314530162  3.5651169599779 3.08694985706848  4.53846603872921 2.74237992160556  C 4.85128522040895 2.67555611048579  5.05381093125538 2.37154692797333  4.99496870063774 2.05712864915483  Z M 6.13771719417298 22.9458550283742  L 8.25612823963024 22.9369039957879  C 8.25612823963024 22.3749780611947  8.28397589656583 21.8607909670627  8.24717720704382 21.3515766688118  C 8.22032410928443 20.9786169777102  8.3884046100743 20.8542970806764  8.69572339554202 20.691189375768  C 9.53436392291496 20.3140902956537  10.3296792783432 19.8472385146896  11.0677470309483 19.2988065289886  C 12.2319417662818 18.388399480932  12.8028862751894 16.9127275194472  12.5546129994734 15.4558298718774  C 12.3322997984278 14.1358704491117  11.5156184625015 12.9913430807122  10.3397297139178 12.3518106827357  C 9.24571462001984 11.6556192593459  8.05224360849456 11.1334756918037  6.92640262095574 10.4909904639327  C 6.23569197594065 10.1289553006574  5.58668893916138 9.69239570397485  4.99099046393235 9.18911250219401  C 4.56769721402998 8.85190385105261  4.32111177167678 8.34020097544828  4.32111177167678 7.79901075951909  C 4.32111177167678 6.93770927405592  4.93869030831922 6.20036959778486  5.78663780494912 6.0492891827065  C 6.77707201705243 5.80293785677134  7.81598635842192 5.83182524660083  8.79120107646384 6.13283215351316  C 9.67635874334508 6.36953723746569  10.5296905165856 6.72161118586564  11.4138536242904 7.02793541215704  C 11.6197273737786 6.27107587901492  11.8544433393783 5.4734394196455  12.0414204645174 4.66386825016093  C 12.0583910049061 4.47246526708113  11.977591792112 4.28543005228016  11.826595682443 4.16658866202545  C 11.1457625613654 3.82911736117865  10.4414391111792 3.54127210027195  9.7191247879249 3.30530041537486  C 9.10533800557982 3.16371327310776  8.48263367037521 3.06402741368333  7.85532089159301 3.00693266249357  L 7.85532089159301 1.29131808342606  L 5.72000234013922 1.29131808342606  L 5.72000234013922 3.22175744456808  C 4.93231147253255 3.64842333118838  4.20528871467843 3.98557889194421  3.53893406657676 4.41522845609336  C 2.21604644416982 5.1674768124999  1.3989354096617 6.57210038328981  1.3989354096617 8.09391155792162  C 1.3989354096617 9.63937234828313  2.24141016527028 11.0619307192341  3.59661849880058 11.8048031357868  C 4.71549757210551 12.4900544082374  5.90399578774941 13.0619259345933  7.04773884046085 13.7083893991694  C 7.66800722790993 14.0526860181139  8.26865335236869 14.4312026471263  8.84689639033502 14.8421868601183  C 9.52029150640897 15.2684578301865  9.82858322786137 16.0901629059415  9.60176680512495 16.8541800737146  C 9.38211282630391 17.6119215303318  8.72139451410339 18.1582468213152  7.93588018487071 18.2316445328498  C 6.96778681418232 18.4036465541311  5.97227006842138 18.3353435184014  5.03674018604102 18.0327326975956  C 4.2092669513836 17.796027613643  3.41560872871935 17.442959106067  2.58714093488561 17.1376294389518  L 1.87205288714676 19.8627215819342  C 3.14040663879632 20.6941126076545  4.62121761630169 21.1429478304935  6.13771719417298 21.1556485110865  L 6.13771719417298 22.9458550283742  Z " fill-rule="nonzero" fill="#ffffff" stroke="none" transform="matrix(1 0 0 1 57 544 )" />
  </g>
</svg>