<?xml version="1.0" encoding="utf-8"?>
<svg version="1.1" xmlns:xlink="http://www.w3.org/1999/xlink" width="10px" height="33px" xmlns="http://www.w3.org/2000/svg">
  <g transform="matrix(1 0 0 1 -46 -344 )">
    <path d="M 6.327 11.5200000000002  C 6.077 11.547  5.82799999999997 11.593  5.47700000000009 11.657  L 5.47700000000009 12.544  C 5.47700000000009 18.8906666666667  5.47700000000009 25.2376666666668  5.47700000000009 31.585  C 5.47700000000009 32.353  5.32900000000018 32.5000000000001  4.596 32.347  C 4.43900000000008 32.314  4.279 32.0890000000001  4.2059999999999 31.916  C 4.16716233886837 31.7351774558127  4.1617397069806 31.5487744846718  4.18999999999983 31.366  C 4.18999999999983 25.0890000000001  4.17799999999988 18.811  4.2059999999999 12.534  C 4.2059999999999 11.8340000000001  4.01599999999985 11.5820000000001  3.31299999999987 11.4920000000001  C 1.47099999999978 11.2560000000001  0.341999999999871 9.8830000000001  0.264999999999873 7.70300000000009  C 0.187999999999874 5.52300000000008  0.254999999999882 3.3490000000001  0.236999999999853 1.17100000000011  C 0.236999999999853 0.589000000000112  0.601999999999862 0.651000000000124  0.980999999999767 0.6280000000001  C 1.43999999999983 0.599000000000103  1.57499999999982 0.780000000000086  1.56999999999971 1.23500000000013  C 1.54799999999977 3.29600000000011  1.61899999999969 5.36000000000013  1.54199999999969 7.41900000000015  C 1.52588223959742 7.53546668976139  1.51779472825115 7.65290411502889  1.51779472825115 7.77048077948371  C 1.51779472825115 9.18653887804987  2.66573662968517 10.3344807794837  4.08179472825123 10.3344807794837  C 4.19759431669991 10.3344807794837  4.31326088916421 10.3266358923509  4.42799999999988 10.3110000000001  C 4.70547217045305 10.2963023654638  4.9835278295468 10.2963023654638  5.26099999999974 10.3110000000001  C 5.38158396497556 10.3286896014168  5.50329658061241 10.3375696662904  5.62517116618142 10.3375696662904  C 7.0108536035068 10.3375696662904  8.1341711661812 9.21425210361593  8.1341711661812 7.82856966629043  C 8.1341711661812 7.72508315687395  8.12776854690492 7.62169577323897  8.11499999999978 7.51900000000018  C 8.1429999999998 5.87500000000017  8.12099999999987 4.23000000000019  8.12099999999987 2.58500000000015  C 8.12099999999987 2.19100000000014  8.12099999999987 1.79800000000017  8.12099999999987 1.40400000000017  C 8.12099999999987 0.652000000000157  8.22999999999979 0.534000000000162  8.95499999999993 0.661000000000172  C 9.16017151359415 0.732205436451352  9.31503049831781 0.902889426913134  9.36599999999999 1.11400000000015  C 9.38799999999992 3.47600000000017  9.4190000000001 5.84000000000015  9.35699999999997 8.20200000000017  C 9.26717335254375 9.88892154913032  7.99885751286706 11.2777901814891  6.327 11.5200000000002  Z " fill-rule="nonzero" fill="#ffffff" stroke="none" transform="matrix(1 0 0 1 46 344 )" />
  </g>
</svg>