<?xml version="1.0" encoding="utf-8"?>
<svg version="1.1" xmlns:xlink="http://www.w3.org/1999/xlink" width="9px" height="9px" xmlns="http://www.w3.org/2000/svg">
  <g transform="matrix(1 0 0 1 -27 0 )">
    <path d="M 31.5 0  C 34.02 0  36 1.98  36 4.5  C 36 7.02  34.02 9  31.5 9  C 28.98 9  27 7.02  27 4.5  C 27 1.98  28.98 0  31.5 0  Z " fill-rule="nonzero" fill="#ffffff" stroke="none" />
    <path d="M 31.5 0.5  C 33.74 0.5  35.5 2.26  35.5 4.5  C 35.5 6.74  33.74 8.5  31.5 8.5  C 29.26 8.5  27.5 6.74  27.5 4.5  C 27.5 2.26  29.26 0.5  31.5 0.5  Z " stroke-width="1" stroke="#797979" fill="none" />
  </g>
</svg>