<?xml version="1.0" encoding="utf-8"?>
<svg version="1.1" xmlns:xlink="http://www.w3.org/1999/xlink" width="12px" height="12px" xmlns="http://www.w3.org/2000/svg">
  <g transform="matrix(1 0 0 1 2 3 )">
    <path d="M 4 -3  C 7.36 -3  10 -0.36  10 3  C 10 6.36  7.36 9  4 9  C 0.64 9  -2 6.36  -2 3  C -2 -0.36  0.64 -3  4 -3  Z " fill-rule="nonzero" fill="#ffffff" stroke="none" />
    <path d="M 4 -2.5  C 7.08 -2.5  9.5 -0.0800000000000001  9.5 3  C 9.5 6.08  7.08 8.5  4 8.5  C 0.92 8.5  -1.5 6.08  -1.5 3  C -1.5 -0.0800000000000001  0.92 -2.5  4 -2.5  Z " stroke-width="1" stroke="#797979" fill="none" />
  </g>
</svg>